HIERARCHY
ROOT root
{
	OFFSET 0.000000 0.000000 0.000000
	CHANNELS 6 Xposition Yposition Zposition Zrotation Yrotation Xrotation
	JOINT lhip
	{
		OFFSET 0.058581 -0.082280 -0.017664
		CHANNELS 3 Zrotation Yrotation Xrotation
		JOINT lknee
		{
			OFFSET 0.043451 -0.386469 0.008037
			CHANNELS 3 Zrotation Yrotation Xrotation
			JOINT lankle
			{
				OFFSET -0.014790 -0.426874 -0.037428
				CHANNELS 3 Zrotation Yrotation Xrotation
				JOINT ltoe
				{
					OFFSET 0.041054 -0.060286 0.122042
					CHANNELS 3 Zrotation Yrotation Xrotation
					End Site
					{
						OFFSET 0.000000 0.000000 0.000000
					}
				}
			}
		}
	}
	JOINT rhip
	{
		OFFSET -0.060310 -0.090513 -0.013543
		CHANNELS 3 Zrotation Yrotation Xrotation
		JOINT rknee
		{
			OFFSET -0.043257 -0.383688 -0.004843
			CHANNELS 3 Zrotation Yrotation Xrotation
			JOINT rankle
			{
				OFFSET 0.019056 -0.420046 -0.034562
				CHANNELS 3 Zrotation Yrotation Xrotation
				JOINT rtoe
				{
					OFFSET -0.034840 -0.062106 0.130323
					CHANNELS 3 Zrotation Yrotation Xrotation
					End Site
					{
						OFFSET 0.000000 0.000000 0.000000
					}
				}
			}
		}
	}
	JOINT lowerback
	{
		OFFSET 0.004439 0.124404 -0.038385
		CHANNELS 3 Zrotation Yrotation Xrotation
		JOINT upperback
		{
			OFFSET 0.004488 0.137956 0.026820
			CHANNELS 3 Zrotation Yrotation Xrotation
			JOINT chest
			{
				OFFSET -0.002265 0.056032 0.002855
				CHANNELS 3 Zrotation Yrotation Xrotation
				JOINT lowerneck
				{
					OFFSET -0.013390 0.211636 -0.033468
					CHANNELS 3 Zrotation Yrotation Xrotation
					JOINT upperneck
					{
						OFFSET 0.010113 0.088937 0.050410
						CHANNELS 3 Zrotation Yrotation Xrotation
						End Site
						{
							OFFSET 0.000000 0.000000 0.000000
						}
					}
				}
				JOINT lclavicle
				{
					OFFSET 0.071702 0.114000 -0.018898
					CHANNELS 3 Zrotation Yrotation Xrotation
					JOINT lshoulder
					{
						OFFSET 0.122921 0.045205 -0.019046
						CHANNELS 3 Zrotation Yrotation Xrotation
						JOINT lelbow
						{
							OFFSET 0.255332 -0.015649 -0.022946
							CHANNELS 3 Zrotation Yrotation Xrotation
							JOINT lwrist
							{
								OFFSET 0.265709 0.012698 -0.007375
								CHANNELS 3 Zrotation Yrotation Xrotation
								End Site
								{
									OFFSET 0.000000 0.000000 0.000000
								}
							}
						}
					}
				}
				JOINT rclavicle
				{
					OFFSET -0.082954 0.112472 -0.023707
					CHANNELS 3 Zrotation Yrotation Xrotation
					JOINT rshoulder
					{
						OFFSET -0.113228 0.046853 -0.008472
						CHANNELS 3 Zrotation Yrotation Xrotation
						JOINT relbow
						{
							OFFSET -0.260127 -0.014369 -0.031269
							CHANNELS 3 Zrotation Yrotation Xrotation
							JOINT rwrist
							{
								OFFSET -0.269108 0.006794 -0.006027
								CHANNELS 3 Zrotation Yrotation Xrotation
								End Site
								{
									OFFSET 0.000000 0.000000 0.000000
								}
							}
						}
					}
				}
			}
		}
	}
}
MOTION
Frames: 5
Frame Time: 0.033333
-0.596963 0.402387 1.250236 -71.388800 -1.305642 75.820118 5.244040 1.479273 -16.574615 -3.839011 -14.828841 10.973288 -8.586384 11.919550 15.340344 0.000000 -0.000000 0.000000 -5.567745 -5.113909 -27.480585 1.718275 1.322196 29.976714 10.922881 -10.016921 15.313421 0.000000 -0.000000 0.000000 0.501056 -1.600809 26.311687 -0.577093 -1.350596 -0.377187 1.017155 -0.638112 3.369568 -14.553144 -0.968201 20.600609 4.607934 4.767587 -21.723105 0.269212 12.301592 6.799509 -25.395387 26.457465 -6.371930 -3.916451 -30.951358 12.968093 0.748380 -16.837492 7.748892 -2.616649 -9.950797 6.270691 32.605790 -30.137935 -4.821662 -1.902274 33.672238 4.932686 6.092675 10.773132 7.516229 
-0.698942 0.368661 1.176403 -70.523193 -0.866995 75.026554 4.016355 1.195474 -12.454400 -3.921125 -14.707375 10.269928 -7.807579 12.866267 17.288829 0.000000 -0.000000 0.000000 -4.708816 -2.874519 -21.130735 1.435210 4.989899 26.534252 11.171465 -9.191884 21.390408 0.000000 -0.000000 0.000000 -0.340092 -1.202813 21.900925 -0.054248 -1.796979 1.171603 1.246575 -0.665161 3.759409 -14.464902 -0.695216 21.919900 4.664093 5.177373 -22.458223 2.653496 14.877373 7.297123 -27.378355 27.833198 -7.202904 -3.871056 -35.453181 14.937246 1.072651 -17.059072 5.523933 -4.204361 -12.576557 6.628673 35.031836 -30.899801 -5.325557 -2.943689 36.497409 6.162481 6.813967 10.818497 5.642272 
-0.795888 0.335067 1.092748 -69.920006 -0.446314 74.451727 2.589575 0.551159 -11.095985 -6.009593 -14.238209 15.976380 -7.368426 12.143967 12.767347 0.000000 -0.000000 0.000000 -3.760669 -1.399223 -17.483946 1.949857 6.347691 31.040983 10.801789 -7.844154 14.051979 0.000000 -0.000000 0.000000 -0.941387 -0.438175 19.797006 0.659229 -1.741161 1.049136 1.288507 -0.500756 3.315002 -13.124355 -0.488649 21.347519 4.515876 4.427439 -21.705482 2.022832 16.189764 7.357997 -30.930670 28.141148 -7.780507 -2.248550 -39.267268 14.144055 2.230527 -17.021831 1.266125 -2.044994 -13.887171 6.161457 39.265351 -30.776274 -6.392025 -5.020625 36.634524 4.141033 6.103217 10.885542 3.122464 
-0.881415 0.305280 1.003120 -69.737337 0.361320 74.725157 1.245066 0.412150 -14.442007 -9.468672 -12.802125 30.591821 1.270549 11.799029 -5.334879 0.000000 -0.000000 0.000000 -2.481601 -0.194681 -17.119037 4.601030 7.177496 43.298571 4.150356 -8.055553 -12.249735 0.000000 -0.000000 0.000000 -0.854679 0.305510 20.048290 1.592866 -1.001881 -1.586209 0.984533 -0.419662 3.945513 -10.064551 -0.096684 15.873953 2.701511 2.189217 -18.246536 -2.413053 16.620102 6.215194 -35.314643 25.866425 -7.754835 -0.117621 -40.844779 13.611216 4.545888 -15.311377 -4.172783 4.585091 -13.380131 4.965276 44.978922 -27.791806 -6.348960 -9.735785 34.296078 -1.315964 3.921976 10.893950 -1.015358 
-0.946682 0.280648 0.933113 -70.391406 1.100222 74.809889 0.872262 -1.284946 -20.696240 -10.573637 -7.788381 50.057707 6.624770 13.629613 -21.417493 0.000000 -0.000000 0.000000 -1.505164 1.650256 -18.196973 4.434192 4.447821 55.540897 -1.187908 -9.772949 -29.292823 0.000000 -0.000000 0.000000 -0.304255 1.300584 24.255412 2.415156 0.394234 -3.948153 0.833743 0.130117 3.702331 -6.496398 0.477663 6.062035 -0.694035 -0.909916 -11.731345 -12.313292 15.306185 1.885637 -39.679069 17.131558 -5.465181 4.688977 -35.389008 8.169564 4.659296 -12.892582 -7.686330 15.646681 -10.203825 1.528493 49.327910 -19.279150 -2.798181 -16.699948 27.723338 -11.722972 0.404632 10.855591 -8.269323 
